<?xml version="1.0" encoding="utf-8"?>
<?xml-stylesheet type="text/xsl" href="rss1.xsl"?>
<rss version="2.0" xmlns:atom="http://www.w3.org/2005/Atom" xmlns:content="http://purl.org/rss/1.0/modules/content/" xmlns:dc="http://purl.org/dc/elements/1.1/" xmlns:media="http://search.yahoo.com/mrss/">
<channel>
 <title>Getty</title>
 <link>http://www.gettyimg.com/</link>
 <atom:link href="http://www.gettyimg.com/" rel="self" type="application/rss+xml" />

 
                <item>
                <title><![CDATA[【HD Live Performances】WEB-DL - Madison Beer performs Showed Me on BBC Strictly Come Dancing 2023 BBC WEB-RIP.1080p-fstambuk]]></title>
                <link><![CDATA[https://sharemania.us/threads/madison-beer-performs-showed-me-on-bbc-strictly-come-dancing-2023-bbc-web-rip-1080p-fstambuk.230107/]]></link>
                <description><![CDATA[<article>
<blockquote class="messageText SelectQuoteContainer ugc baseHtml">
<div style="text-align: center"><img src="https://i.imgur.com/ZCaXJQ1.gif" class="bbCodeImage LbImage" alt="[​IMG]" data-url="https://i.imgur.com/ZCaXJQ1.gif" style=""><br>
​</div>
<div class="ToggleTriggerAnchor bbCodeSpoilerContainer">
<button type="button" class="button bbCodeSpoilerButton ToggleTrigger Tooltip JsOnly" data-target="> .SpoilerTarget"><span>Spoiler: <span class="SpoilerTitle">Strictly Come Dancing</span></span></button>
<div class="SpoilerTarget bbCodeSpoilerText">
<div class="bbCodeBlock bbCodeCode">
<div class="type">Code:</div>
<pre>Format                                   : MPEG-4
Format profile                           : Base Media
Codec ID                                 : isom (isom/iso2/avc1/mp41)
File size                                : 263 MiB
Duration                                 : 3 min 31 s
Overall bit rate mode                    : Variable
Overall bit rate                         : 10.4 Mb/s
Collection                               : Strictly Come Dancing: Series 21
Season                                   : 21
Album                                    : Strictly Come Dancing: Series 21
Album/Performer                          : BBC TV
Part/Position                            : 21
Track name                               : Week 3 Results
Grouping                                 : Talent Shows,Entertainment
Performer                                : BBC One
Composer                                 : BBC iPlayer
Genre                                    : Talent Shows
ContentType                              : TV Show
Description                              : Ahead of the dance-off, Strictly's professional dancers take us on a visit to Barbie Land.
Recorded date                            : 2023-10-08T19:15:00+01:00
Writing application                      : Lavf57.26.100
Copyright                                : 2023 British Broadcasting Corporation, all rights reserved
Lyrics                                   : Movie Week continues. Opening the results show, our professional dancers take us on a visit to Barbie Land, and the incredible Madison Beer performs in the ballroom. Two couples will face each other in the Movie Week dance-off. Who will the judges save, and who will leave the competition this weekend? /  / PLAY: https://www.bbc.co.uk/iplayer/episode/m001rbny /  / INFO: https://www.bbc.co.uk/programmes/m001rbny
Comment                                  : Ahead of the dance-off, Strictly's professional dancers take us on a visit to Barbie Land.
LongDescription                          : Movie Week continues. Opening the results show, our professional dancers take us on a visit to Barbie Land, and the incredible Madison Beer performs in the ballroom. Two couples will face each other in the Movie Week dance-off. Who will the judges save, and who will leave the competition this weekend? /  / PLAY: https://www.bbc.co.uk/iplayer/episode/m001rbny /  / INFO: https://www.bbc.co.uk/programmes/m001rbny
Part_ID                                  : 202310081915
TVNetworkName                            : BBC One

Video
ID                                       : 1
Format                                   : AVC
Format/Info                              : Advanced Video Codec
Format profile                           : High@L4.2
Format settings                          : CABAC / 4 Ref Frames
Format settings, CABAC                   : Yes
Format settings, Reference frames        : 4 frames
Codec ID                                 : avc1
Codec ID/Info                            : Advanced Video Coding
Duration                                 : 3 min 31 s
Bit rate mode                            : Variable
Bit rate                                 : 10.3 Mb/s
Maximum bit rate                         : 12.0 Mb/s
Width                                    : 1 920 pixels
Height                                   : 1 080 pixels
Display aspect ratio                     : 16:9
Frame rate mode                          : Constant
Frame rate                               : 50.000 FPS
Color space                              : YUV
Chroma subsampling                       : 4:2:0
Bit depth                                : 8 bits
Scan type                                : Progressive
Bits/(Pixel*Frame)                       : 0.099
Stream size                              : 259 MiB (99%)
Color range                              : Limited
Color primaries                          : BT.709
Transfer characteristics                 : BT.709
Matrix coefficients                      : BT.709
Codec configuration box                  : avcC

Audio
ID                                       : 2
Format                                   : AAC LC
Format/Info                              : Advanced Audio Codec Low Complexity
Codec ID                                 : mp4a-40-2
Duration                                 : 3 min 31 s
Bit rate mode                            : Constant
Bit rate                                 : 128 kb/s
Channel(s)                               : 2 channels
Channel layout                           : L R
Sampling rate                            : 48.0 kHz
Frame rate                               : 46.875 FPS (1024 SPF)
Compression mode                         : Lossy
Stream size                              : 3.23 MiB (1%)
Language                                 : English
Default                                  : Yes
Alternate group                          : 1</pre>
</div><div style="text-align: center">​</div></div>
</div><div style="text-align: center"><br>
<div class="bbCodeBlock bbCodeVfcHH HiddenContent">
<div class="attribution type">Hidden Content:</div>
<blockquote>You must reply before you can see the hidden data contained here.</blockquote>
</div><img src="https://z-p3-external.flsc3-1.fna.fbcdn.net/emg1/v/t13/8016921161322424901?url=https%3A%2F%2Fi.ytimg.com%2Fvi%2FTiv0dq0Mv3A%2Fmaxresdefault.jpg&amp;fb_obo=1&amp;utld=ytimg.com&amp;stp=c0.5000x0.5000f_dst-jpg_flffffff_p1000x522_q75&amp;_nc_eui2=AeFLTujX2WYMgz4HQXqlJiOK1NSG7mgSJInU1IbuaBIkiR8PCElXYt9EPuMRKd9xysw&amp;ccb=13-1&amp;oh=06_AbFGSTqY9c-2xsnflWWTi1wSGixjW8wrssy5D_3FDu6NDA&amp;oe=6526A3FB&amp;_nc_sid=dbad39" class="bbCodeImage LbImage" alt="[​IMG]" data-url="https://z-p3-external.flsc3-1.fna.fbcdn.net/emg1/v/t13/8016921161322424901?url=https%3A%2F%2Fi.ytimg.com%2Fvi%2FTiv0dq0Mv3A%2Fmaxresdefault.jpg&amp;fb_obo=1&amp;utld=ytimg.com&amp;stp=c0.5000x0.5000f_dst-jpg_flffffff_p1000x522_q75&amp;_nc_eui2=AeFLTujX2WYMgz4HQXqlJiOK1NSG7mgSJInU1IbuaBIkiR8PCElXYt9EPuMRKd9xysw&amp;ccb=13-1&amp;oh=06_AbFGSTqY9c-2xsnflWWTi1wSGixjW8wrssy5D_3FDu6NDA&amp;oe=6526A3FB&amp;_nc_sid=dbad39" style="">​</div>
<div class="messageTextEndMarker">&nbsp;</div>
</blockquote>
</article>]]></description>
                <author><![CDATA[fstambuk]]></author>
                </item>

                </channel></rss>